<svg xmlns="http://www.w3.org/2000/svg" id="_D9AD57_-_DOURADO" viewBox="0 0 160 160"><defs/><path d="M40 80a56.6 56.6 0 0 1 80 0 56.6 56.6 0 0 1-80 0Z" class="cls-1"/><circle cx="80" cy="80" r="16.17" class="cls-1"/><path d="M122.83 69.05C110.85 58.95 95.85 53.43 80 53.43s-30.85 5.52-42.83 15.62" class="cls-1"/></svg>
<//?xml version="1.0" encoding="UTF-8"?><svg id="_D9AD57_-_DOURADO" xmlns="http://www.w3.org/2000/svg" viewBox="0 0 160 160"><defs><style>.cls-1{fill:none;stroke:#d9ad57;stroke-miterlimit:10;stroke-width:4px;}</style></defs><path class="cls-1" d="M51.72,51.72h0c31.22,0,56.57,25.35,56.57,56.57h0c-31.22,0-56.57-25.35-56.57-56.57h0Z" transform="translate(-33.14 80) rotate(-45)"/><circle class="cls-1" cx="80" cy="80" r="16.17"/><path class="cls-1" d="M122.83,69.05c-11.98-10.1-26.98-15.62-42.83-15.62s-30.85,5.52-42.83,15.62"/></svg>
