<?xml version="1.0" encoding="UTF-8"?><svg id="_D9AD57_-_DOURADO" xmlns="http://www.w3.org/2000/svg" viewBox="0 0 160 160"><defs><style>.cls-1{fill:none;stroke:#d9ad57;stroke-miterlimit:10;stroke-width:4px;}</style></defs><path class="cls-1" d="M122.83,69.05c-11.98-10.1-26.98-15.62-42.83-15.62s-30.85,5.52-42.83,15.62"/><path class="cls-1" d="M51.72,51.72h0c31.22,0,56.57,25.35,56.57,56.57h0c-31.22,0-56.57-25.35-56.57-56.57h0Z" transform="translate(-33.14 80) rotate(-45)"/><line class="cls-1" x1="109.3" y1="110.74" x2="101.65" y2="92.27"/><line class="cls-1" x1="80" y1="116.57" x2="80" y2="96.57"/><line class="cls-1" x1="58.35" y1="92.27" x2="50.7" y2="110.74"/><line class="cls-1" x1="116.98" y1="95.35" x2="111.43" y2="87.04"/><line class="cls-1" x1="92.99" y1="105.29" x2="91.04" y2="95.49"/><line class="cls-1" x1="48.57" y1="87.04" x2="43.02" y2="95.35"/><line class="cls-1" x1="68.96" y1="95.49" x2="67.01" y2="105.29"/></svg>