<?xml version="1.0" encoding="UTF-8"?>
<svg id="Layer_1" xmlns="http://www.w3.org/2000/svg" version="1.1" viewBox="0 0 660 660">
  <!-- Generator: Adobe Illustrator 30.0.0, SVG Export Plug-In . SVG Version: 2.1.1 Build 123)  -->
  <defs>
    <style>
      .st0 {
        fill: #fff;
      }

      .st1 {
        fill: none;
      }

      .st2 {
        fill: #d9ad57;
      }
    </style>
  </defs>
  <g>
    <path class="st0" d="M432.3,242.5c2.8,0,5-2.3,5-5s-2.3-5-5-5-5,2.2-5,5,2.3,5,5,5Z"/>
    <path class="st0" d="M415.3,238.7c0,.5,0,1,0,1.5,0,12.6,10.2,22.9,22.9,22.9s15.8-4.5,19.7-11.3l-4,.6s.2-8.6.1-8.7c-2.7,7.8-10.1,13.4-18.8,13.4s-19.1-8.2-19.9-18.5Z"/>
    <path class="st0" d="M308.7,383.3s0,0,0,0c0,0,0,0-.4,0,0,0,0,0,0,0,0,0,.3,0,.3,0Z"/>
    <path class="st0" d="M454.4,218.7c6.5,4.9,10.8,12.8,10.8,21.6,0,14.9-12.1,27-27,27s-27-12.1-27-27,4.2-16.6,10.8-21.6c-15.1,3.9-28,13.2-36.9,25.7,11.9,16.8,31.3,27.8,53.2,27.8s41.2-11,53.2-27.8c-8.9-12.5-21.8-21.8-36.9-25.7Z"/>
    <path class="st0" d="M351.4,383.3c0,0,.2,0,.3,0,0,0,0,0,0,0-.3,0-.5,0-.4,0,0,0,0,0,0,0Z"/>
  </g>
  <g>
    <circle class="st1" cx="330" cy="330" r="329.9"/>
    <g>
      <g>
        <path class="st0" d="M55,261.6l5.9-22.1-1.6-1.6c-5.9-5.9-15.3,2.9-18.9,9.2l6.4-24.2c8,8,16.8,16.6,25.4,25.2,6.4,6.4,13.8,6.5,21.2-.9l-5.2,19.4-57.1,15.4,7.1-26.6c2.9,5.8,6.7,8.9,12.3,7.3l4.6-1.2ZM62.4,240.9l-5.3,20.1,20.1-5.4-14.8-14.7Z"/>
        <path class="st0" d="M65.1,303.6c6.9.1,9.7-.9,15.5-4.2l-.4,22.4c-5.7-3.4-8.6-4.5-15.7-4.7l-16.2-.3c-12.2-.2-17.8,8-18,16.4-.1,8.8,5.8,18,17.4,18.2l16.6.3c6.9.1,9.7-1,15.5-4.2l-.2,10.6c-5.7-3.4-8.6-4.5-15.7-4.7l-16.2-.3c-12.8-.2-18.7-9.5-19.3-20.1-.8-14,7.3-30.1,20.2-29.9l16.6.3Z"/>
        <path class="st0" d="M93.6,415.3l-17.5,4.3c2.8-2.4,12.8-15.6,11.7-20.2-.4-1.4-2.5-1.8-5.4-1.1l-28.1,6.9c-6.7,1.7-9.2,3.5-13.9,8l-5.4-21.7c6.2,1.7,9.4,2.1,16.3.5l27.9-6.9c2.9-.7,4.6-2.1,4.2-3.6-1.2-4.7-16.2-11.6-19.7-12.4l17.5-4.3,12.4,50.5Z"/>
        <path class="st0" d="M67.1,475.3c-27.8-30,13.3-61,38.1-34.3,24,25.9-10.6,64.1-38.1,34.3ZM68.4,474c14.7,15.9,48-18.2,35.4-31.8-13.3-14.4-50.3,15.7-35.4,31.8Z"/>
        <path class="st0" d="M157.2,525.6l-14.1-.6c6.4-10.4,5.7-22.4-1.4-26.9-12.7-8.1-37.8,14.3-27.7,32.8,3.8,6.7,10.8,11.6,17.8,11.9v1.9c-8.3-.2-16.6-4-22.7-9.8-25-23.7,5-56.5,33.5-38.4,10.9,6.9,16.5,18.8,14.5,29Z"/>
        <path class="st0" d="M172.5,585.8c-38.9-12.5-18.3-59.7,16.4-48.5,33.6,10.8,22.2,61-16.4,48.5ZM173,584c20.6,6.6,32.9-39.4,15.3-45-18.7-6-36.2,38.4-15.3,45Z"/>
        <path class="st0" d="M222.9,595.2c-2.3,6.7-2.1,9.9-.8,16.3l-10.1-3.4c4.9-4.4,6.9-6.6,9.1-13.2l6.5-19.3c2.2-6.6,2-9.6.7-16l15,5,9.6,47.1,8.4-24.8c2.2-6.6,2.1-9.6.8-16l10.1,3.4c-4.9,4.3-6.9,6.7-9.2,13.5l-6.3,18.8c-2.3,6.7-2.1,9.9-.8,16.3l-15.6-5.2-9.3-46.2-8,23.8Z"/>
        <path class="st0" d="M298.3,613.8c-.6,7.1.3,10.1,3,16.1l-22.3-1.8c3.8-5.4,5.1-8.1,5.6-15l1.6-20.3c.6-6.9-.3-9.8-3.2-15.7l22.3,1.8c-3.6,5.4-5,8.2-5.6,15.3l-.2,2.1,16.8,1.4.2-2.4c.6-6.9-.3-9.9-3.2-15.7l22.3,1.8c-3.7,5.4-5.1,8.2-5.7,15.3l-1.6,19.8c-.6,7.1.3,10.1,3.1,16.1l-22.3-1.8c3.7-5.4,5.1-8.1,5.6-15l1.3-16.2-9.1-.7c-7.2-.6-7.9,1.9-8.5,8.8l-.5,6.4Z"/>
        <path class="st0" d="M404.4,622.9l-48.7,8.1c2.3-6.2,2.9-9.1,1.8-15.9l-3.4-20.1c-1.1-6.8-2.7-9.5-6.9-14.5l48.7-8.1,3,17.7c-4.5-6-35.1-19.3-32.8-5.8l1.8,10.9,19-3.2,2.2,13.3c-4.4-5.9-22.3-16.6-19.7-.8l2.5,14.7c3.4,20.3,26.4-13.2,28.5-20l4,23.8Z"/>
        <path class="st0" d="M460.4,556.1l-5,13.2c-7.9-9.4-19.4-12.5-25.9-7.2-11.7,9.4,1.5,40.4,22.3,36.7,7.6-1.4,14.4-6.5,16.9-13.1l1.8.7c-2.8,7.7-9.1,14.3-16.4,18.3-30.4,16.1-52-22.7-25.8-44,10-8.2,23-9.7,32.1-4.5Z"/>
        <path class="st0" d="M499.9,559.4c4.1,5.8,6.7,7.5,12.7,10.3l-18.3,12.9c-.6-6.6-1.3-9.5-5.3-15.1l-11.8-16.7c-4-5.7-6.6-7.3-12.5-10.1l18.3-12.9c.6,6.5,1.3,9.5,5.4,15.3l11.4,16.2Z"/>
        <path class="st0" d="M524.2,541.1c5.3,4.7,8.3,5.8,14.7,7.2l-7,7.9c-2.1-6.2-3.4-8.9-8.6-13.5l-15.3-13.5c-5.2-4.6-8.1-5.6-14.5-6.9l10.6-11.9,36.2,7.5-11.7-35.2,11.9-13.4c2,6.2,3.5,9,8.8,13.7l14.8,13.2c5.3,4.7,8.3,5.8,14.7,7.2l-14.8,16.7c-2.2-6.2-3.5-8.9-8.7-13.5l-23.9-21.2,6.3,18.8c5.3,16,16.4,16.5,24.3,18.1l-10.5,11.8-45.6-9.4c.9,1,2,2.1,3.4,3.3l14.8,13.2Z"/>
        <path class="st0" d="M612.6,437.1l-21.2,44.6c-3.8-5.4-5.8-7.6-12-10.6l-18.4-8.8c-6.3-3-9.3-3.2-15.8-2.7l21.2-44.6,16.2,7.7c-7.5.2-35.9,17.7-23.6,23.6l10,4.7,8.3-17.4,12.2,5.8c-7.3.2-26.4,8.8-12,15.6l13.5,6.4c18.6,8.8,4.3-29.1,0-34.8l21.8,10.4Z"/>
        <path class="st0" d="M606.3,403.8c7,1.4,10.1.9,16.3-1.2l-2.1,10.4c-4.9-4.3-7.4-6-14.2-7.4l-20-4.1c-6.8-1.4-9.8-.8-16,1.2l3.2-15.5,45.6-15.3-25.7-5.2c-6.8-1.4-9.8-.9-16,1.2l2.1-10.4c4.9,4.3,7.5,6,14.5,7.4l19.4,4c7,1.4,10.1.9,16.3-1.2l-3.3,16.1-44.7,15,24.6,5Z"/>
        <path class="st0" d="M579.1,297.5l18-.5c-3.2,1.7-15.8,12.5-15.7,17.2,0,1.5,2.1,2.3,5,2.2l29-.7c6.9-.2,9.8-1.4,15.3-4.8l.6,22.4c-5.7-3-8.7-4.1-15.8-3.9l-28.7.7c-3,0-5,1.1-4.9,2.6.1,4.8,13.4,14.8,16.6,16.3l-18,.5-1.3-52Z"/>
        <path class="st0" d="M618,244.6c20.7,35.3-26.1,56.7-44.6,25.2-17.8-30.4,24.1-60.3,44.6-25.2ZM616.5,245.5c-10.9-18.7-50.8,7.5-41.4,23.4,9.9,16.9,52.5-4.5,41.4-23.4Z"/>
      </g>
      <g>
        <path class="st0" d="M124.1,162c5.6,4.4,8.6,5.2,15.2,6.2l-13.7,17.7c-2.5-6.1-4-8.7-9.5-12.9l-16.1-12.5c-5.5-4.3-8.4-5.1-14.9-6l13.7-17.7c2.5,6,4.1,8.7,9.7,13.1l15.7,12.2Z"/>
        <path class="st0" d="M141.2,142.3c4.7,5.3,7.5,6.8,13.8,8.9l-7.9,7c-1.3-6.4-2.3-9.3-6.9-14.5l-13.5-15.3c-4.6-5.2-7.4-6.6-13.5-8.6l11.9-10.5,45.6,15.2-17.4-19.6c-4.6-5.2-7.3-6.6-13.5-8.7l7.9-7c1.3,6.4,2.4,9.3,7.1,14.7l13.2,14.8c4.7,5.3,7.5,6.8,13.8,8.9l-12.3,10.9-44.7-14.9,16.6,18.8Z"/>
        <path class="st0" d="M210.9,74.5c-21-21.6-39.5,4.8-24.9,5.6,8.8.5,20.7-1.7,30-1.8,5.1,0,9.2,1.3,11.1,5.3,3.7,7.9-3.3,19.2-13.7,25.7-8.2,5.1-18.6,7.1-27.2,3.1l4.1-13.5c8.4,8.7,16.4,10,22,8,8.9-3.1,11.9-14.2,2.3-14.6-10.3-.4-34,7.3-40.4-1.6-8.5-12,19.7-39.6,40.6-29.6l-4.1,13.4Z"/>
        <path class="st0" d="M278.7,32.1l4.6,17.5c-2.4-2.7-15.8-12.6-20.4-11.4-1.4.4-1.8,2.6-1,5.4l7.3,28c1.8,6.7,3.6,9.2,8.2,13.8l-21.6,5.7c1.7-6.3,2-9.4.2-16.3l-7.3-27.8c-.8-2.9-2.2-4.6-3.6-4.2-4.7,1.2-11.3,16.4-12.1,19.9l-4.6-17.5,50.3-13.2Z"/>
        <path class="st0" d="M317.6,64.6c.5,7.1,1.9,9.9,5.5,15.4l-22.3,1.6c2.9-5.9,3.8-8.8,3.3-15.7l-1.4-20.4c-.5-6.9-1.8-9.7-5.5-15.1l22.3-1.6c-2.9,5.9-3.8,8.9-3.3,15.9l1.4,19.8Z"/>
        <path class="st0" d="M389.6,33.6l-2,17.9c-1.3-3.4-10.2-17.4-14.9-17.9-1.5-.2-2.6,1.8-2.9,4.7l-3.2,28.8c-.8,6.9,0,9.9,2.7,15.8l-22.2-2.5c3.8-5.2,5.3-8,6-15.1l3.2-28.6c.3-3-.4-5.1-1.9-5.2-4.8-.5-16.5,11.2-18.4,14.2l2-17.9,51.7,5.8Z"/>
        <path class="st0" d="M407.1,53.7c2.4-6.5,2.4-9.5,1.3-16l21,7.9c-5.1,4.2-7.2,6.5-9.7,13.2l-5.7,15.2c-4.3,11.4,1.5,19.5,9.4,22.4,8.3,3.1,18.9.6,23-10.3l5.8-15.5c2.4-6.5,2.3-9.5,1.3-16l9.9,3.7c-5.1,4.2-7.2,6.6-9.7,13.2l-5.7,15.2c-4.5,12-15.3,14.4-25.4,11.5-13.4-3.9-25.9-17-21.4-29l5.8-15.5Z"/>
        <path class="st0" d="M523.2,97.5l-10.3,14.8c.5-3.6-.7-20.2-4.6-22.9-1.2-.8-3.1.3-4.8,2.7l-16.6,23.8c-4,5.7-4.7,8.7-5.2,15.2l-18.4-12.8c5.8-2.8,8.4-4.6,12.5-10.4l16.4-23.6c1.7-2.5,2-4.6.8-5.5-4-2.8-19.8,2-23,3.7l10.3-14.8,42.7,29.7Z"/>
        <path class="st0" d="M522.3,168.9c-34.1-22.6-1.5-62.4,28.9-42.3,29.4,19.5,4.8,64.7-28.9,42.3ZM523.3,167.4c18,12,42.3-29,26.9-39.2-16.3-10.9-45.2,27.1-26.9,39.2Z"/>
      </g>
      <path class="st2" d="M92,190.5c.2,10.6.6,11.9,6.6,20.6-10.6.2-11.9.6-20.6,6.6-.2-10.6-.6-11.9-6.6-20.6,10.6-.2,11.9-.6,20.6-6.6Z"/>
      <path class="st2" d="M565.2,185.7c0,10.6-.4,11.9-6.2,20.7,10.6,0,11.9.4,20.7,6.2,0-10.6.4-11.9,6.2-20.7-10.6,0-11.9-.4-20.7-6.2Z"/>
    </g>
    <path class="st0" d="M527.8,222.7c-2.9-2.3-22.1-16.9-49.5-25.8-36.9-12.1-71.8-9.1-103.7,8.7l-19.8-17.5c10.2-9,21.8-15.1,33.8-19,.8-.3,1.6-.5,2.4-.8,30.9-9.5,64-8.7,97.4,2.4.3,0,.6.2.8.3,0,0,0,0,0,0-40.7-40.7-97-66-159.1-66s-23.5.9-34.9,2.7c11.6,11,21.2,24.5,28.2,39.9,7.8,17.2,11.5,35.2,11.5,52.9,0,48.9-28.1,95.7-75.6,117.2-64.7,29.3-93.4,105.4-64.1,170.1,7.2,15.8,17.1,29.5,29.1,40.7,0,0,0,0,0,0,31.6,16.8,67.6,26.4,105.9,26.4s23.1-.9,34.2-2.6h0c108-16.5,190.7-109.8,190.7-222.4s-9.8-75.4-27.2-107.3ZM296.1,318.8c-5.3,13.3-10.4,29.7-7,43.4,0,.3.2.8.4,1.1.2.6.6,1.5.9,2.1,1.5,2.7,3.4,4.1,5.4,4.3,0,0,.3,0,.2,0,0,0,0,0,0,0h0c0,0-.3,0-.3,0,2-.7,2.9-1.4,6.4-2.9,3-1.3,7.8-1.9,11.2-.8,2.7.8,4.8,2,6.8,3,7.2,3.8,14.3,3.2,21.3-.7,1.2-.6,3.6-1.8,5.4-2.3,1.2-.4,2.6-.6,3.9-.6,2.5-.1,5.5.6,7.3,1.4,3.3,1.4,4.4,2.2,6.1,2.7h.4c0,.1-.3,0-.4.1,0,0,0,0,0,0,0,0,.1,0,.2,0,.1,0,.3,0,.5,0,1.6-.3,3.6-1.7,4.9-4.2l.5-1c.2-.5.4-1.1.6-1.6.2-.5.3-1.3.5-1.8,2.6-14.2-2-28.6-7.4-42.2,14.9,13.1,29.4,42.4,14.8,60.3-3.7,4.4-9.7,7.6-15.7,7.4-1.4,0-3-.4-4.3-.8-3-.8-5.4-2-6.6-2.3,0,0-.1,0-.2,0-.5.3-2.7,1.4-3.4,1.9-5.4,3.1-12.1,5-18.4,5-7,0-14.1-2.3-19.9-5.8-.9-.5-1.5-.8-1.9-1.1,0,0,0,0-.2,0-1.1.3-3.5,1.5-6.6,2.3-1.5.4-3.2.7-4.8.8-9.2,0-17.3-7.3-19.8-15.6-5.7-17.9,6.1-40.4,19.4-52.1ZM380.8,459c-4.8,7.9-13.6,12.7-22,15.8-18.8,6.4-39.3,6.4-58.1,0-9-3.3-19.4-9-23.2-18.4,8.4,4.3,17,5,26,5.9,17.4,1.3,35,1.3,52.4,0,4.3-.4,8.7-.8,13-1.6,4.3-.8,8.6-1.9,13-4.2-.3.9-.7,1.8-1.2,2.6ZM414,445c-6.8,1-13.8.8-20.6.4-9.1-.6-17.9-2-26.8-3.8,0,0,.9.2.9.2-2.9-.3-5.8-.4-8.7-.5-5.8,0-11.6.5-17.2,1.7-1.2.3-3,.7-4.2,1-2.9.7-6.9,2.2-9.9,1.2,0,0-4.8-1.2-4.8-1.2-9.7-2.6-20.1-3.3-30.1-2.2l.9-.2c-4.5,1-8.9,1.7-13.3,2.4-5.5.8-11.2,1.4-16.9,1.7-8,.2-16.3.5-23.9-2.3,8.6-2.3,16.5-6.1,24.7-9.3,6.9-2.9,17.1-6.9,24.1-9.7,0,0,.9-.2.9-.2,12.6-3.4,26-3.6,38.7-.4,0,0,1.1.3,2.3.6,1.5-.4,3.1-.7,3.5-.8,12.4-2.8,25.3-2.5,37.5.8,0,0,.9.2.9.2,7,2.9,17.2,6.8,24.1,9.7,6.1,2.4,12.1,5,18.3,7.3,2.1.7,4.2,1.4,6.4,2-2.1.9-4.5,1.3-6.7,1.7ZM504.8,253.9c-7.4,10.5-17.3,19.2-28.5,25.2-11.7,6.2-24.8,9.5-38.1,9.5s-26.4-3.3-38.1-9.5c-11.2-6-21.1-14.7-28.5-25.2l-6.7-9.5,6.7-9.5c7.4-10.5,17.3-19.2,28.5-25.2,11.7-6.2,24.8-9.5,38.1-9.5s26.4,3.3,38.1,9.5c11.2,6,21.1,14.7,28.5,25.2l6.7,9.5-6.7,9.5Z"/>
    <path class="st1" d="M330,555.5c-60.2,0-116.9-23.5-159.5-66-42.6-42.6-66-99.2-66-159.5s23.5-116.9,66-159.5c42.6-42.6,99.2-66,159.5-66s116.9,23.5,159.5,66c42.6,42.6,66,99.2,66,159.5s-23.5,116.9-66,159.5-99.2,66-159.5,66ZM330,105.5c-123.8,0-224.5,100.7-224.5,224.5s100.7,224.5,224.5,224.5,224.5-100.7,224.5-224.5-100.7-224.5-224.5-224.5Z"/>
  </g>
  <path class="st2" d="M323.3,147.6c-7-15.5-16.7-28.9-28.2-39.9-48.2,7.5-91.3,30.3-124.3,63.3.3-.1.6-.2.9-.3,44.6-14.9,88.7-11.2,127.9,10.7,1.6.9,3.1,1.8,4.7,2.7l-18.9,21.5c-32-17.8-66.8-20.7-103.6-8.7-27.4,9-46.6,23.5-49.5,25.8-17.3,31.9-27.2,68.5-27.2,107.3,0,86,48.2,160.7,119.1,198.6-11.9-11.2-21.9-24.9-29.1-40.7-29.3-64.7-.6-140.9,64.1-170.1,47.5-21.5,75.6-68.3,75.6-117.2s-3.7-35.7-11.5-52.9ZM224.1,258.7c-20.7,0-40.6-7.1-56.8-19.6l10.6-12.6c12.9,9.9,28.9,15.7,46.2,15.7s33-5.7,45.8-15.4l9.7,11.6c-16.8,13.2-34.6,20.3-55.6,20.3Z"/>
</svg>
