<?xml version="1.0" encoding="UTF-8"?>
<svg id="Layer_1" xmlns="http://www.w3.org/2000/svg" version="1.1" viewBox="0 0 765.6 113.4">
  <!-- Generator: Adobe Illustrator 30.0.0, SVG Export Plug-In . SVG Version: 2.1.1 Build 123)  -->
  <defs>
    <style>
      .st0 {
        fill: #fff;
      }

      .st1 {
        fill: none;
      }
    </style>
  </defs>
  <path class="st1" d="M113.4,56.7c0,31.3-25.4,56.7-56.7,56.7S0,88,0,56.7s2.5-19,6.8-27c0,0,0,0,0,0,2.6-4.8,5.9-9.2,9.7-13C26.8,6.3,41,0,56.7,0c31.3,0,56.7,25.4,56.7,56.7Z"/>
  <path class="st0" d="M62.1,70.1s0,0,0,0c0,0,0,0,0,0,0,0,0,0,0,0ZM106.5,29.7c4.4,8,6.8,17.2,6.8,27,0,28.4-20.9,51.9-48.1,56-2.8.4-5.7.7-8.6.7-9.6,0-18.7-2.4-26.7-6.7-3-2.8-5.5-6.3-7.3-10.2-7.4-16.3-.1-35.5,16.2-42.9s23.5-26.6,16.2-42.9c-1.8-3.9-4.2-7.3-7.1-10.1C50.8.2,53.7,0,56.7,0,72.4,0,86.5,6.4,96.8,16.6c0,0,0,0,0,0,0,0-.1,0-.2,0-8.4-2.8-16.7-3-24.5-.6-.2,0-.4.1-.6.2-3,1-5.9,2.5-8.5,4.8l5,4.4c8.1-4.5,16.8-5.2,26.1-2.2,6.9,2.3,11.7,5.9,12.5,6.5ZM43.3,67c.6,2.1,2.7,3.9,5,3.9.4,0,.8,0,1.2-.2.8-.2,1.4-.5,1.7-.6,0,0,0,0,0,0,0,0,.2.1.5.3,1.5.9,3.3,1.5,5,1.5,1.6,0,3.3-.5,4.6-1.3.2-.1.7-.4.9-.5,0,0,0,0,0,0,.3,0,.9.4,1.7.6.3,0,.7.2,1.1.2,1.5,0,3-.8,4-1.9,3.7-4.5,0-11.9-3.7-15.2,1.3,3.4,2.5,7.1,1.9,10.6,0,.1,0,.3-.1.5,0,.1-.1.3-.2.4v.2c-.5.6-1,1-1.4,1.1,0,0,0,0-.1,0,0,0,0,0,0,0,0,0,0,0,0,0,0,0,0,0,0,0h0c-.4-.2-.7-.4-1.5-.7-.5-.2-1.2-.4-1.9-.3-.3,0-.7,0-1,.2-.5.1-1.1.4-1.4.6-1.8,1-3.5,1.1-5.4.2-.5-.2-1.1-.6-1.7-.8-.9-.3-2.1-.1-2.8.2-.9.4-1.1.6-1.6.7,0,0,0,0,0,0h0s0,0,0,0c0,0,0,0,0,0-.5,0-1-.4-1.4-1.1,0-.1-.2-.4-.2-.5,0,0,0-.2,0-.3-.9-3.5.4-7.6,1.8-10.9-3.3,2.9-6.3,8.6-4.9,13.1ZM69.8,88.5c-1.1.6-2.2.9-3.3,1.1-1.1.2-2.2.3-3.3.4-4.4.3-8.8.3-13.2,0-2.3-.2-4.4-.4-6.5-1.5.9,2.4,3.6,3.8,5.8,4.6,4.7,1.6,9.9,1.6,14.6,0,2.1-.8,4.3-2,5.5-4,.1-.2.2-.4.3-.6ZM79.5,85.2c-.6-.1-1.1-.3-1.6-.5-1.6-.6-3.1-1.2-4.6-1.8-1.7-.7-4.3-1.7-6.1-2.5h-.2c-3.1-.9-6.3-1-9.5-.2-.1,0-.5.1-.9.2-.3,0-.6-.1-.6-.1-3.2-.8-6.6-.7-9.8.1h-.2c-1.8.8-4.3,1.8-6.1,2.5-2.1.8-4.1,1.8-6.2,2.3,1.9.7,4,.6,6,.6,1.4,0,2.9-.2,4.2-.4,1.1-.2,2.2-.4,3.4-.6h-.2c2.5-.2,5.1,0,7.6.6,0,0,1.2.3,1.2.3.7.2,1.8-.1,2.5-.3.3,0,.8-.2,1.1-.3,1.4-.3,2.9-.4,4.3-.4.7,0,1.5,0,2.2.1h-.2c2.2.4,4.5.8,6.7.9,1.7.1,3.5.1,5.2,0,.6,0,1.2-.2,1.7-.4ZM102.4,35.1l-1.7-2.4c-1.9-2.6-4.4-4.8-7.2-6.4-2.9-1.6-6.3-2.4-9.6-2.4s-6.7.8-9.6,2.4c-2.8,1.5-5.3,3.7-7.2,6.4l-1.7,2.4,1.7,2.4c1.9,2.6,4.4,4.8,7.2,6.4,2.9,1.6,6.3,2.4,9.6,2.4s6.7-.8,9.6-2.4c2.8-1.5,5.3-3.7,7.2-6.4l1.7-2.4ZM51.3,70.1s0,0,0,0c0,0,0,0,0,0,0,0,0,0,0,0ZM45.4,25.3l4.8-5.4c-.4-.2-.8-.5-1.2-.7-9.9-5.5-21-6.5-32.2-2.7,0,0-.2,0-.2,0-3.8,3.8-7.1,8.2-9.7,13,.7-.6,5.6-4.2,12.5-6.5,9.3-3,18.1-2.3,26.1,2.2ZM44,33.6l-2.5-2.9c-3.2,2.4-7.2,3.9-11.6,3.9s-8.4-1.5-11.6-4l-2.7,3.2c4.1,3.2,9.1,4.9,14.3,4.9,5.3,0,9.8-1.8,14-5.1ZM88,28.6c1.7,1.2,2.7,3.2,2.7,5.4,0,3.8-3,6.8-6.8,6.8s-6.8-3-6.8-6.8,1.1-4.2,2.7-5.4c-3.8,1-7.1,3.3-9.3,6.5,3,4.2,7.9,7,13.4,7s10.4-2.8,13.4-7c-2.2-3.2-5.5-5.5-9.3-6.5ZM78.2,33.7c0,.1,0,.3,0,.4,0,3.2,2.6,5.8,5.8,5.8s4-1.1,5-2.8l-1,.2s0-2.2,0-2.2c-.7,2-2.5,3.4-4.7,3.4s-4.8-2.1-5-4.7ZM82.5,34.7c.7,0,1.3-.6,1.3-1.3s-.6-1.3-1.3-1.3-1.3.6-1.3,1.3.6,1.3,1.3,1.3ZM142.2,48.6h14c-2-3.6-2.8-5.4-2.8-9.8v-12.4c0-4.4.7-6.3,2.8-9.8h-14c2,3.5,2.8,5.3,2.8,9.6v12.7c0,4.3-.7,6.1-2.8,9.6ZM190.1,38.8v-12.4c0-4.4.7-6.3,2.8-9.8h-6.6c2,3.5,2.7,5.3,2.7,9.6v16.4l-15-26h-9.9c2,3.5,2.8,5.3,2.8,9.6v12.7c0,4.3-.7,6.1-2.8,9.6h6.6c-2-3.6-2.8-5.4-2.8-9.8v-15.7l14.7,25.5h10.2c-2-3.6-2.8-5.4-2.8-9.8ZM222,39.8c5.2,3,.3,8.3-5.6,7.3-3.7-.6-7.7-3.7-9.8-10.9l-6.2,6.2c3.6,4.8,9.9,6.7,15.9,6.3,7.6-.5,14.8-4.7,15.1-10.1.2-2.8-1.7-4.7-4.5-6.2-5.2-2.7-12.4-5-17.1-7.9-7.8-4.7,10.1-13.9,15.3,4.2l6.2-6.2c-8.6-11.7-32.3-4.7-31.1,4.4.9,6.8,16.2,9.5,21.8,12.7ZM257.2,20.9c0-1.8.6-3.1,1.5-3.1,3,0,9.5,8.1,10.5,10.1v-11.3h-32.5v11.3c1-2,7.4-10.1,10.5-10.1s1.5,1.2,1.5,3.1v18c0,4.4-.7,6.3-2.7,9.8h14c-2-3.5-2.8-5.3-2.8-9.6v-18.1ZM274.8,48.6h14c-2-3.6-2.8-5.4-2.8-9.8v-12.4c0-4.4.7-6.3,2.8-9.8h-14c2,3.5,2.8,5.3,2.8,9.6v12.7c0,4.3-.7,6.1-2.8,9.6ZM303.6,48.6h14c-2-3.5-2.8-5.3-2.8-9.6v-18.1c0-1.8.6-3.1,1.5-3.1,3,0,9.5,8.1,10.5,10.1v-11.3h-32.5v11.3c1-2,7.4-10.1,10.5-10.1s1.5,1.2,1.5,3.1v18c0,4.4-.7,6.3-2.7,9.8ZM334.4,36.6c0,8.1,10.1,13,18.9,12.3,6.6-.5,12.3-4.3,12.3-12.3v-10.1c0-4.4.7-6.3,2.8-9.8h-6.6c2,3.6,2.8,5.3,2.8,9.6v10.4c0,7.2-5.7,11.1-11.2,11.1s-10.4-3.5-10.4-11.1v-10.1c0-4.4.7-6.3,2.8-9.8h-14c2.1,3.6,2.8,5.3,2.8,9.6v10.4ZM382.8,48.6h14c-2-3.5-2.8-5.3-2.8-9.6v-18.1c0-1.8.6-3.1,1.5-3.1,3,0,9.5,8.1,10.5,10.1v-11.3h-32.5v11.3c1-2,7.4-10.1,10.5-10.1s1.5,1.2,1.5,3.1v18c0,4.4-.7,6.3-2.7,9.8ZM424.4,17c21.3-5.7,32.3,24.5,7.9,31-24.7,6.6-29.8-25.1-7.9-31ZM432,47c13.1-3.5,3.9-31.8-7.2-28.8-11.8,3.2-6,32.4,7.2,28.8ZM162,65.2l18.5,32h-17.2c3.1-2.7,4.3-5.5,2.4-8.6l-1.5-2.5h-14.3l-.7,1.2c-2.6,4.5,4.2,8.8,8.6,9.9h-15.7c3.5-6.1,7.3-12.8,11.2-19.4,2.8-4.9,1.7-9.4-3.9-12.6h12.5ZM163.6,84.9l-6.5-11.3-6.5,11.3h13ZM216.8,74.8v10.4c0,7.2-5.7,11.1-11.2,11.1s-10.4-3.5-10.4-11.1v-10.1c0-4.4.7-6.3,2.8-9.8h-14c2.1,3.6,2.8,5.3,2.8,9.6v10.4c0,8.1,10.1,13,18.9,12.3,6.6-.5,12.3-4.3,12.3-12.3v-10.1c0-4.4.7-6.3,2.8-9.8h-6.6c2,3.6,2.8,5.3,2.8,9.6ZM225.8,76.4c1-2,7.4-10.1,10.5-10.1s1.5,1.2,1.5,3.1v18c0,4.4-.7,6.3-2.7,9.8h14c-2-3.5-2.8-5.3-2.8-9.6v-18.1c0-1.8.6-3.1,1.5-3.1,3,0,9.5,8.1,10.5,10.1v-11.3h-32.5v11.3ZM284.5,96.6c-24.7,6.6-29.8-25.1-7.9-31,21.3-5.7,32.3,24.5,7.9,31ZM277,66.7c-11.8,3.2-6,32.4,7.2,28.8,13.1-3.5,3.9-31.8-7.2-28.8ZM320,66.7c5.1-1.4,10.9,3.4,13,10.7l6.2-6.2c-3.9-5.3-11.7-7.7-19.5-5.6-20.4,5.5-18,33.1,3.5,31.7,5.2-.4,10.5-2.5,14-6.2l-.8-.9c-3.1,3.1-8.3,4.3-13,3.2-12.8-3.2-12.4-24.2-3.4-26.6ZM367,96.6c-24.7,6.6-29.8-25.1-7.9-31,21.3-5.7,32.3,24.5,7.9,31ZM359.5,66.7c-11.8,3.2-6,32.4,7.2,28.8,13.1-3.5,3.9-31.8-7.2-28.8ZM417.2,65.2h-6.6c2,3.5,2.7,5.3,2.7,9.6v16.4l-15-26h-9.9c2,3.5,2.8,5.3,2.8,9.6v12.7c0,4.3-.7,6.1-2.8,9.6h6.6c-2-3.6-2.8-5.4-2.8-9.8v-15.7l14.7,25.5h10.2c-2-3.6-2.8-5.4-2.8-9.8v-12.4c0-4.4.7-6.3,2.8-9.8ZM458.1,65.2h-14c2,3.5,2.8,5.3,2.8,9.6v1.5h-10.6v-1.3c0-4.4.7-6.3,2.7-9.8h-14c2.1,3.5,2.8,5.3,2.8,9.6v12.7c0,4.3-.7,6.1-2.8,9.6h14c-2-3.6-2.7-5.4-2.7-9.8v-4c0-4.3.4-5.9,4.8-5.9h5.7v10.1c0,4.3-.7,6.1-2.8,9.6h14c-2-3.6-2.8-5.4-2.8-9.8v-12.4c0-4.4.7-6.3,2.8-9.8ZM468.6,74.8v12.7c0,4.3-.7,6.1-2.8,9.6h30.9v-15.1c-2,4-19.6,22.2-19.6,9.4v-9.3c0-10,9.9-1.5,12,2.5v-8.4h-12v-6.9c0-8.5,17.5,2.8,19.6,7v-11.2h-30.9c2,3.5,2.8,5.3,2.8,9.6ZM519.4,66.7c5.1-1.4,10.9,3.4,13,10.7l6.2-6.2c-3.9-5.3-11.7-7.7-19.5-5.6-20.4,5.5-18,33.1,3.5,31.7,5.2-.4,10.5-2.5,14-6.2l-.8-.9c-3.1,3.1-8.3,4.3-13,3.2-12.8-3.2-12.4-24.2-3.4-26.6ZM559.1,65.2h-14c2,3.5,2.8,5.3,2.8,9.6v12.7c0,4.3-.7,6.1-2.8,9.6h14c-2-3.6-2.8-5.4-2.8-9.8v-12.4c0-4.4.7-6.3,2.8-9.8ZM611.1,65.2h-11.2l-11.6,20-11.5-20h-9.9c2,3.5,2.8,5.3,2.8,9.6v12.7c0,4.3-.7,6.1-2.8,9.6h6.6c-2-3.6-2.8-5.4-2.8-9.8v-12.4c0-1.1,0-2.1.2-3l14.5,25.2h9.8c-2.5-4.4-6.9-9.7-1.6-18.9l6.2-10.7v19.9c0,4.3-.7,6.1-2.7,9.6h14c-2-3.6-2.8-5.4-2.8-9.8v-12.4c0-4.4.7-6.3,2.8-9.8ZM621.7,74.8v12.7c0,4.3-.7,6.1-2.8,9.6h30.9v-15.1c-2,4-19.6,22.2-19.6,9.4v-9.3c0-10,9.9-1.5,12,2.5v-8.4h-12v-6.9c0-8.5,17.5,2.8,19.6,7v-11.2h-30.9c2,3.5,2.8,5.3,2.8,9.6ZM687.4,65.2h-6.6c2,3.5,2.7,5.3,2.7,9.6v16.4l-15-26h-9.9c2,3.5,2.8,5.3,2.8,9.6v12.7c0,4.3-.7,6.1-2.8,9.6h6.6c-2-3.6-2.8-5.4-2.8-9.8v-15.7l14.7,25.5h10.2c-2-3.6-2.8-5.4-2.8-9.8v-12.4c0-4.4.7-6.3,2.8-9.8ZM693,76.4c1-2,7.4-10.1,10.5-10.1s1.5,1.2,1.5,3.1v18c0,4.4-.7,6.3-2.7,9.8h14c-2-3.5-2.8-5.3-2.8-9.6v-18.1c0-1.8.6-3.1,1.5-3.1,3,0,9.5,8.1,10.5,10.1v-11.3h-32.5v11.3ZM751.7,96.6c-24.7,6.6-29.8-25.1-7.9-31,21.3-5.7,32.3,24.5,7.9,31ZM744.2,66.7c-11.8,3.2-6,32.4,7.2,28.8,13.1-3.5,3.9-31.8-7.2-28.8Z"/>
</svg>