<?xml version="1.0" encoding="UTF-8"?>
<svg id="Layer_1" xmlns="http://www.w3.org/2000/svg" version="1.1" viewBox="0 0 660 660">
  <!-- Generator: Adobe Illustrator 30.0.0, SVG Export Plug-In . SVG Version: 2.1.1 Build 123)  -->
  <defs>
    <style>
      .st0 {
        fill: #fff;
      }

      .st1 {
        fill: #d9ad57;
      }
    </style>
  </defs>
  <path class="st1" d="M195.2,487.8c-29.3-64.7-.6-140.9,64.1-170.1,47.5-21.5,75.6-68.3,75.6-117.2.5-33.4-15.1-70-39.7-92.8-48.2,7.5-91.3,30.3-124.3,63.3,46.5-15.9,93.2-11.3,133.5,13.1l-18.9,21.5c-50.8-30.4-115.4-12.4-153.2,17.2-60.7,107.5-15.2,251.3,91.9,305.9-11.9-11.2-21.9-24.9-29.1-40.7h0ZM167.5,239.1l10.6-12.6c25.8,20.7,66.2,20.8,92.1.3l9.7,11.6c-32,27.2-80.1,26.4-112.3.7h0ZM92.1,190.4c.2,10.6.6,11.9,6.6,20.6-10.6.2-11.8.6-20.6,6.6-.2-10.6-.6-11.9-6.6-20.6,10.6-.2,11.8-.6,20.6-6.6ZM565.4,185.6c0,10.6-.4,11.9-6.2,20.7,10.6,0,11.9.4,20.7,6.2,0-10.6.4-11.9,6.2-20.7-10.6,0-11.9-.4-20.7-6.2Z"/>
  <g>
    <path class="st0" d="M591.1,461.4l-13.5-6.4c-14.5-6.9,4.6-15.4,12-15.6l-12.2-5.8-8.3,17.4-10-4.7c-12.3-5.9,16.1-23.3,23.6-23.6l-16.2-7.7-21.2,44.6c6.5-.5,9.6-.3,15.8,2.7l18.4,8.8c6.3,3,8.3,5.2,12,10.6l21.2-44.6h0s-21.8-10.4-21.8-10.4c4.3,5.7,18.6,43.7,0,34.8Z"/>
    <path class="st0" d="M549.5,482.9c-5.3-4.7-6.8-7.5-8.8-13.7l-11.9,13.4,11.7,35.1-36.2-7.5-10.6,11.9c6.4,1.3,9.3,2.3,14.5,6.9l15.3,13.5c5.2,4.6,6.5,7.3,8.6,13.5l7-7.9c-6.4-1.3-9.4-2.4-14.7-7.2h0s-14.8-13.1-14.8-13.1c-1.3-1.2-2.5-2.3-3.4-3.3l45.6,9.4,10.5-11.8c-8-1.6-19-2-24.3-18.1l-6.3-18.8,23.9,21.2c5.2,4.6,6.5,7.3,8.7,13.5l14.8-16.7c-6.4-1.4-9.4-2.5-14.7-7.2l-14.8-13.2Z"/>
    <path class="st0" d="M304.3,65.8c.5,6.9-.5,9.8-3.3,15.7l22.3-1.6c-3.7-5.5-5-8.3-5.5-15.4h0s-1.4-19.8-1.4-19.8c-.5-7.1.4-10.1,3.3-16l-22.3,1.6c3.6,5.4,5,8.2,5.5,15.1l1.5,20.3Z"/>
    <polygon class="st0" points="454.6 218.6 454.6 218.6 454.6 218.6 454.6 218.6"/>
    <path class="st0" d="M415.5,238.7h0c0,.5,0,1,0,1.5,0,12.6,10.2,22.9,22.9,22.9s15.8-4.5,19.7-11.3l-4,.6s.2-8.6.1-8.7c-2.7,7.8-10.1,13.4-18.8,13.4s-19.1-8.2-19.9-18.5Z"/>
    <path class="st0" d="M354.5,31.5c1.5.2,2.2,2.2,1.9,5.2l-3.2,28.6c-.8,7.1-2.2,9.9-6,15.1l22.2,2.5c-2.6-6-3.4-8.9-2.7-15.8l3.2-28.8c.3-2.9,1.5-4.8,2.9-4.7,4.7.5,13.7,14.5,14.9,17.9l2-17.9h0l-51.7-5.8-2,17.9c2-3,13.6-14.7,18.4-14.2Z"/>
    <circle class="st0" cx="432.5" cy="237.4" r="5" transform="translate(-32.4 72.3) rotate(-9.2)"/>
    <path class="st0" d="M618.2,244.5c-20.4-35-62.3-5.2-44.5,25.2,18.4,31.4,65.2,10.1,44.5-25.2ZM616.6,245.4c11.1,18.9-31.5,40.3-41.4,23.3-9.3-15.9,30.5-42,41.4-23.3Z"/>
    <path class="st0" d="M422.7,98.2c10.1,2.9,20.9.5,25.4-11.5l5.7-15.2c2.5-6.6,4.6-9,9.7-13.2l-9.9-3.7c1,6.5,1.1,9.5-1.3,16l-5.8,15.5c-4.1,10.9-14.7,13.4-23,10.3-7.9-3-13.6-11.1-9.4-22.4l5.7-15.2c2.5-6.7,4.6-9,9.7-13.2l-21-7.9c1.1,6.5,1.1,9.5-1.3,16h0s-5.8,15.5-5.8,15.5c-4.5,12.1,7.9,25.1,21.4,29Z"/>
    <path class="st0" d="M613.6,368.8l-19.4-4c-7-1.4-9.6-3.1-14.5-7.5l-2.1,10.4c6.2-2.1,9.2-2.5,16-1.2l25.7,5.2-45.6,15.3-3.2,15.5c6.2-2.1,9.2-2.6,16-1.2l20,4.1c6.8,1.4,9.3,3.1,14.2,7.4l2.1-10.4c-6.2,2.1-9.4,2.6-16.3,1.2h0l-24.6-5,44.7-15,3.3-16.1c-6.2,2.1-9.4,2.6-16.3,1.2Z"/>
    <path class="st0" d="M586.6,316.4c-2.9,0-5-.8-5-2.2-.1-4.7,12.5-15.5,15.7-17.2l-18,.5h0s1.3,52,1.3,52l18-.5c-3.2-1.5-16.5-11.5-16.6-16.3,0-1.5,1.9-2.5,4.9-2.6l28.7-.7c7.1-.2,10.1.9,15.8,3.9l-.6-22.4c-5.5,3.4-8.4,4.6-15.3,4.8l-29,.7Z"/>
    <path class="st0" d="M438.3,272.1c21.9,0,41.2-11,53.2-27.8-8.9-12.5-21.8-21.8-36.9-25.7,6.5,4.9,10.7,12.8,10.7,21.6,0,14.9-12.1,27-27,27s-27-12.1-27-27,4.2-16.6,10.8-21.6c-15,3.9-28,13.2-36.9,25.7,11.9,16.8,31.3,27.8,53.2,27.8Z"/>
    <path class="st0" d="M476.1,107.9c-4.1,5.8-6.7,7.6-12.5,10.4l18.4,12.8c.5-6.5,1.2-9.5,5.2-15.2l16.6-23.8c1.7-2.4,3.6-3.6,4.8-2.7,3.9,2.7,5.1,19.3,4.6,22.9l10.3-14.8h0s-42.7-29.7-42.7-29.7l-10.3,14.8c3.2-1.7,19-6.5,23-3.7,1.2.8.9,3-.8,5.5l-16.4,23.6Z"/>
    <path class="st0" d="M522.5,168.9c33.8,22.5,58.3-22.8,28.9-42.2-30.4-20.1-63,19.6-28.9,42.2ZM550.4,128.2c15.4,10.2-8.9,51.1-26.9,39.2-18.3-12.1,10.6-50.1,26.9-39.2Z"/>
    <path class="st0" d="M323.5,147.5c29,63.2,1.2,140.8-64.1,170.1-82.9,36.3-101.4,150-35.1,210.8,197.3,102.3,407.9-107.3,303.7-305.9h0c-37.9-29.6-102.5-47.5-153.3-17.1l-19.8-17.5c36.1-30.5,89.3-32.2,134.4-17.1-47.6-48.8-123-75.1-194-63.3,11.5,11.1,21.2,24.5,28.2,39.9ZM381,458.9h0c-17.1,27.8-88.9,27.9-103.2-2.6,17.5,8.9,58.1,7,78.4,5.9,9-.9,17.5-1.6,26-5.9-.3.8-.7,1.8-1.2,2.6ZM414.1,444.9h0c-15.8,1.9-31.8-.3-47.3-3.5l.8.2c-10-1-20.4-.4-30.1,2.3-2.9.7-6.9,2.2-9.9,1.2-11.3-3.3-23.2-4.8-34.9-3.5l.9-.2c-15.3,3.1-39.2,6.8-54.1,1.8,8.6-2.3,16.5-6,24.7-9.3,7.3-3,17.5-7.3,25-10,13.5-3.6,27.5-3.5,41,.1,13.6-3.7,27.5-3.7,41-.1,7.5,2.7,17.7,7,25,10,8.2,3.2,16.1,7,24.7,9.2-2.1.9-4.5,1.3-6.7,1.7ZM371.7,234.8c22.9-33.2,69.2-44.7,104.7-25.2,11.2,6,21.1,14.7,28.5,25.2,0,0,6.7,9.5,6.7,9.5l-6.7,9.5h0c-22.9,33.2-69.2,44.7-104.7,25.2-11.2-6-21.1-14.7-28.5-25.2,0,0-6.7-9.5-6.7-9.5l6.7-9.5ZM346.9,365.9c3.4-1.1,8.2-.5,11.2.8,3.6,1.5,4.4,2.2,6.5,2.9,0,0-.3,0-.4,0,0,0,.1,0,.2,0,3.6-.2,6.3-5,7-8.7,2.6-14.2-2-28.6-7.4-42.2,15,13.1,29.4,42.4,14.8,60.2-3.7,4.3-9.7,7.6-15.7,7.4-3.4,0-9.1-2.5-11.1-3.1-14.8,9.1-28.9,9.2-43.7,0-2.1.7-8.1,3.2-11.6,3.1-9.2,0-17.3-7.3-19.8-15.6-5.7-17.9,6.1-40.4,19.3-52.1h0c-5.3,13.3-10.4,29.7-7,43.4.8,3.4,3.7,7.4,6.7,7.5,0,0,.3,0,.2,0,0,0-.4,0-.4,0,2-.7,2.9-1.4,6.5-2.9,3-1.3,7.8-1.9,11.2-.8,2.7.8,4.8,2,6.8,3,7.2,3.8,14.3,3.2,21.3-.7,1.2-.6,3.6-1.8,5.4-2.3Z"/>
    <path class="st0" d="M330.4,596.4c.6-7.1,2-9.9,5.7-15.3l-22.3-1.8c2.8,5.9,3.7,8.8,3.2,15.7l-.2,2.4-16.8-1.4.2-2.1c.6-7.1,1.9-9.9,5.6-15.3l-22.3-1.8c2.9,5.9,3.7,8.8,3.1,15.7l-1.6,20.3c-.6,6.9-1.8,9.6-5.6,15l22.3,1.8c-2.7-6-3.6-9-3-16h0s.5-6.4.5-6.4c.6-6.9,1.3-9.4,8.5-8.8l9.1.7-1.3,16.2c-.6,6.9-1.9,9.6-5.6,15l22.3,1.8c-2.8-6-3.7-9-3.1-16.1l1.6-19.8Z"/>
    <path class="st0" d="M87.9,399.3c1.1,4.6-8.9,17.8-11.7,20.2l17.5-4.3h0s-12.4-50.5-12.4-50.5l-17.5,4.3c3.5.8,18.5,7.7,19.7,12.4.3,1.4-1.3,2.8-4.2,3.6l-27.9,6.9c-6.9,1.7-10,1.3-16.2-.5l5.4,21.7c4.7-4.5,7.2-6.3,13.9-8l28.1-6.9c2.8-.7,5-.3,5.4,1.1Z"/>
    <path class="st0" d="M64.1,353.5c7.1.1,10,1.3,15.7,4.7l.2-10.6c-5.8,3.2-8.6,4.3-15.5,4.2l-16.6-.3c-11.6-.2-17.6-9.4-17.4-18.2.1-8.4,5.8-16.6,18-16.4l16.2.3c7.1.1,10,1.3,15.7,4.7l.4-22.5c-5.8,3.3-8.6,4.3-15.5,4.2h0s-16.6-.3-16.6-.3c-12.9-.2-21,15.9-20.2,29.9.7,10.5,6.5,19.9,19.4,20.1l16.2.3Z"/>
    <path class="st0" d="M500.1,559.3h0s-11.4-16.2-11.4-16.2c-4.1-5.8-4.9-8.9-5.4-15.3l-18.3,12.9c5.9,2.7,8.5,4.4,12.5,10.1l11.8,16.7c4,5.7,4.7,8.6,5.3,15.2l18.3-12.9c-6-2.8-8.6-4.5-12.7-10.3Z"/>
    <path class="st0" d="M261.5,586.8l-8.4,24.8-9.5-47.1-15-5c1.3,6.4,1.5,9.5-.7,16l-6.5,19.3c-2.2,6.6-4.2,8.8-9.1,13.2l10.1,3.4c-1.3-6.5-1.4-9.6.8-16.3h0l8-23.8,9.4,46.2,15.5,5.2c-1.3-6.5-1.4-9.6.9-16.3l6.3-18.8c2.3-6.7,4.3-9.2,9.2-13.5l-10.1-3.4c1.3,6.4,1.4,9.4-.8,16Z"/>
    <path class="st0" d="M93.5,247.2c-7.4,7.4-14.8,7.2-21.2.9-8.6-8.6-17.4-17.3-25.4-25.2l-6.4,24.2c3.6-6.3,13.1-15.1,18.9-9.2l1.6,1.6-5.9,22.1h0s-4.5,1.2-4.5,1.2c-5.7,1.5-9.4-1.5-12.3-7.3l-7.1,26.6,57.1-15.4,5.1-19.4ZM57.2,261l5.3-20.1,14.8,14.7-20.1,5.4Z"/>
    <path class="st0" d="M157.4,525.5h0c2-10.3-3.6-22.1-14.5-29-28.5-18.1-58.5,14.7-33.5,38.4,6.1,5.7,14.3,9.5,22.5,9.8v-1.9c-6.9-.3-13.9-5.1-17.7-11.9-10.2-18.5,15-40.9,27.7-32.8,7.1,4.5,7.8,16.4,1.4,26.9l14.1.6Z"/>
    <path class="st0" d="M105.3,440.9c-24.8-26.7-65.9,4.2-38.1,34.2,27.5,29.8,62-8.4,38.1-34.2ZM68.6,474c-14.9-16,22.1-46.2,35.4-31.8,12.6,13.5-20.7,47.6-35.4,31.8Z"/>
    <path class="st0" d="M189.1,537.2c-34.7-11.1-55.3,36-16.4,48.5,38.6,12.5,49.9-37.7,16.4-48.5ZM173.2,584c-20.9-6.7-3.4-51.1,15.3-45,17.6,5.6,5.3,51.6-15.3,45Z"/>
    <path class="st0" d="M400.5,599c-2.2,6.8-25.1,40.3-28.5,20l-2.5-14.7c-2.6-15.8,15.3-5,19.7.8l-2.2-13.3-19,3.2-1.8-10.9c-2.2-13.5,28.3-.2,32.8,5.8l-3-17.7-48.7,8.1c4.2,5,5.8,7.6,6.9,14.5l3.4,20.1c1.2,6.8.5,9.8-1.8,15.9l48.7-8.1h0s-4-23.8-4-23.8Z"/>
    <path class="st0" d="M245.2,42.7c1.4-.4,2.9,1.3,3.6,4.2l7.3,27.8c1.8,6.9,1.4,10-.2,16.3l21.6-5.7c-4.6-4.6-6.4-7.1-8.2-13.8l-7.3-28c-.7-2.8-.4-5,1-5.4,4.6-1.2,18,8.6,20.4,11.4l-4.6-17.5h0s-50.3,13.2-50.3,13.2l4.6,17.5c.8-3.5,7.4-18.7,12.1-19.9Z"/>
    <path class="st0" d="M451.9,598.7c-20.8,3.8-34-27.3-22.3-36.7,6.5-5.3,18.1-2.2,25.9,7.2l5-13.2h0c-9.1-5.2-22.1-3.6-32.1,4.5-26.2,21.3-4.7,60.1,25.8,44,7.4-3.9,13.6-10.6,16.4-18.3l-1.8-.7c-2.5,6.6-9.4,11.7-16.9,13.1Z"/>
    <path class="st0" d="M116.2,172.9c5.5,4.2,7,6.9,9.5,12.9l13.7-17.7c-6.5-.9-9.5-1.8-15.1-6.2l-15.7-12.2c-5.6-4.3-7.2-7.1-9.7-13.1l-13.7,17.7c6.4.9,9.4,1.7,14.9,6l16.1,12.5Z"/>
    <path class="st0" d="M214.8,92.3c9.6.3,6.6,11.5-2.3,14.6-5.6,2-13.6.6-22-8l-4.1,13.5c8.7,4.1,19,2.1,27.2-3.1,10.4-6.5,17.4-17.8,13.7-25.7-1.9-4-6-5.3-11.1-5.3-9.4.1-21.3,2.3-30,1.8-14.6-.8,3.9-27.2,24.9-5.6h0s4.1-13.3,4.1-13.3c-21-10-49.2,17.6-40.6,29.6,6.3,8.9,30,1.2,40.4,1.6Z"/>
    <path class="st0" d="M126.7,128.5l13.5,15.3c4.6,5.2,5.6,8,6.9,14.5l7.9-7c-6.2-2.1-9-3.5-13.8-8.9l-16.6-18.8,44.7,14.9,12.3-10.9c-6.2-2.1-9-3.5-13.8-8.9l-13.2-14.9c-4.7-5.3-5.8-8.3-7.1-14.6l-7.9,7c6.2,2,8.9,3.5,13.5,8.7l17.4,19.6-45.6-15.2-11.8,10.5c6.2,2,8.9,3.4,13.5,8.6Z"/>
  </g>
</svg>