<?xml version="1.0" encoding="UTF-8"?><svg id="_D9AD57_-_DOURADO" xmlns="http://www.w3.org/2000/svg" viewBox="0 0 160 160"><defs><style>.cls-1{fill:#d9ad57;}.cls-1,.cls-2{stroke:#d9ad57;stroke-miterlimit:10;stroke-width:4px;}.cls-2{fill:none;}</style></defs><path class="cls-2" d="M77.6,81.73c0-2.37-1.92-4.29-4.29-4.29-1.47,0-2.77.74-3.55,1.87,0,0-.01.02-.02.03-.59.86-.94,1.91-.94,3.04,0,1.66.76,3.15,1.94,4.13.14.11.29.22.44.33,1.08.74,2.39,1.18,3.79,1.18,2.08,0,3.93-.94,5.17-2.43.14-.18.28-.36.41-.55.93-1.35,1.47-2.98,1.47-4.74,0-2.6-1.18-4.92-3.04-6.46-.22-.18-.45-.35-.68-.51-1.69-1.16-3.73-1.84-5.93-1.84-3.25,0-6.15,1.48-8.07,3.79-.22.28-.44.56-.64.85-1.45,2.11-2.3,4.66-2.3,7.41,0,7.08,5.39,10.6,5.81,10.89,2.64,1.81,5.82,2.87,9.26,2.87,5.34,0,10.09-2.56,13.08-6.52,2.59-3.43,4.12-7.7,4.12-12.32,0-6.68-3.2-12.61-8.15-16.35,0,0-5.71-5.15-15.41-5.15-13.28,0-20.33,10.04-20.33,10.04-4.11,5.38-6.55,12.11-6.55,19.4,0,16.84,12.84,25.63,12.84,25.63,6.68,5,14.97,7.97,23.96,7.97,22.09,0,40-17.91,40-40,0-22.09-17.91-40-40-40"/><circle class="cls-1" cx="73.2" cy="81.84" r="4.41"/></svg>