<?xml version="1.0" encoding="UTF-8"?><svg id="_D9AD57_-_DOURADO" xmlns="http://www.w3.org/2000/svg" viewBox="0 0 160 160"><defs><style>.cls-1{fill:none;stroke:#d9ad57;stroke-miterlimit:10;stroke-width:4px;}</style></defs><line class="cls-1" x1="63.16" y1="39.35" x2="60.87" y2="33.81"/><line class="cls-1" x1="93.78" y1="113.26" x2="66.22" y2="46.74"/><line class="cls-1" x1="99.13" y1="126.19" x2="96.84" y2="120.65"/><circle class="cls-1" cx="80" cy="80" r="40"/><line class="cls-1" x1="122.43" y1="37.57" x2="37.57" y2="122.43"/><line class="cls-1" x1="122.43" y1="122.43" x2="37.57" y2="37.57"/><line class="cls-1" x1="80" y1="140" x2="80" y2="20"/><line class="cls-1" x1="39.35" y1="63.16" x2="33.81" y2="60.87"/><line class="cls-1" x1="113.26" y1="93.78" x2="46.74" y2="66.22"/><line class="cls-1" x1="126.19" y1="99.13" x2="120.65" y2="96.84"/><line class="cls-1" x1="39.35" y1="96.84" x2="33.81" y2="99.13"/><line class="cls-1" x1="113.26" y1="66.22" x2="46.74" y2="93.78"/><line class="cls-1" x1="126.19" y1="60.87" x2="120.65" y2="63.16"/><line class="cls-1" x1="63.16" y1="120.65" x2="60.87" y2="126.19"/><line class="cls-1" x1="93.78" y1="46.74" x2="66.22" y2="113.26"/><line class="cls-1" x1="99.13" y1="33.81" x2="96.84" y2="39.35"/><line class="cls-1" x1="140" y1="80" x2="20" y2="80"/></svg>