<?xml version="1.0" encoding="UTF-8"?><svg id="_D9AD57_-_DOURADO" xmlns="http://www.w3.org/2000/svg" viewBox="0 0 160 160"><defs><style>.cls-1,.cls-2{fill:none;}.cls-2{stroke:#d9ad57;stroke-miterlimit:10;stroke-width:4px;}.cls-3{fill:#d9ad57;}</style></defs><path class="cls-3" d="M65.76,61.78c3.65-1.98,4.02-2.35,6-6,1.98,3.65,2.35,4.02,6,6-3.65,1.98-4.02,2.35-6,6-1.98-3.65-2.35-4.02-6-6Z"/><path class="cls-2" d="M96.49,116.43c-10.06,4.55-21.91.09-26.46-9.97-4.55-10.06-.09-21.91,9.97-26.46h0c10.06-4.55,14.53-16.4,9.97-26.46-4.55-10.06-16.4-14.53-26.46-9.97-20.12,9.1-29.05,32.8-19.95,52.92,9.1,20.12,32.8,29.05,52.92,19.95"/><path class="cls-2" d="M63.51,43.57c10.06-4.55,21.91-.09,26.46,9.97,4.55,10.06.09,21.91-9.97,26.46h0c-10.06,4.55-14.53,16.4-9.97,26.46,4.55,10.06,16.4,14.53,26.46,9.97,20.12-9.1,29.05-32.8,19.95-52.92-9.1-20.12-32.8-29.05-52.92-19.95"/><path class="cls-2" d="M80,80c10.06-4.55,14.53-16.4,9.97-26.46-4.55-10.06-16.4-14.53-26.46-9.97"/><path class="cls-1" d="M63.51,43.57c10.06-4.55,21.91-.09,26.46,9.97,4.55,10.06.09,21.91-9.97,26.46"/><circle class="cls-3" cx="88.24" cy="98.22" r="4"/></svg>